<?xml version="1.0" encoding="UTF-8" standalone="no"?>
<!-- Uploaded to: SVG Repo, www.svgrepo.com, Generator: SVG Repo Mixer Tools -->

<svg
   width="800"
   height="800"
   viewBox="-52.5 0 361 361"
   preserveAspectRatio="xMinYMin"
   version="1.1"
   id="svg12"
   sodipodi:docname="html5.svg"
   inkscape:export-filename="html5.svg"
   inkscape:export-xdpi="96"
   inkscape:export-ydpi="96"
   inkscape:version="1.2.2 (732a01da63, 2022-12-09)"
   xmlns:inkscape="http://www.inkscape.org/namespaces/inkscape"
   xmlns:sodipodi="http://sodipodi.sourceforge.net/DTD/sodipodi-0.dtd"
   xmlns="http://www.w3.org/2000/svg"
   xmlns:svg="http://www.w3.org/2000/svg">
  <defs
     id="defs16" />
  <sodipodi:namedview
     id="namedview14"
     pagecolor="#ffffff"
     bordercolor="#000000"
     borderopacity="0.25"
     inkscape:showpageshadow="2"
     inkscape:pageopacity="0.0"
     inkscape:pagecheckerboard="0"
     inkscape:deskcolor="#d1d1d1"
     showgrid="false"
     inkscape:zoom="0.323125"
     inkscape:cx="318.76209"
     inkscape:cy="427.0793"
     inkscape:window-width="1360"
     inkscape:window-height="697"
     inkscape:window-x="-8"
     inkscape:window-y="-8"
     inkscape:window-maximized="1"
     inkscape:current-layer="svg12" />
  <path
     d="M 263.375,33.84375 238.70917,318.09872 127.83444,349.71875 17.265362,318.14239 -7.375,33.84375 Z"
     fill="#e44d26"
     id="path2"
     style="stroke-width:1.07644" />
  <path
     d="M 128,325.549 217.59234,299.99815 238.6699,57.088766 H 128 Z"
     fill="#f16529"
     id="path4"
     style="stroke-width:1.07644" />
  <path
     d="M 80.050155,126.826 H 128 V 91.957929 H 43.007361 l 0.810838,9.354341 8.331259,96.08726 H 128 V 162.53146 H 83.14811 Z m 7.639287,88.00811 H 53.663943 l 4.748287,54.74823 69.43176,19.82667 0.15601,-0.0437 v -36.27756 l -0.14858,0.0404 -37.748566,-10.48542 z"
     fill="#ebebeb"
     id="path6"
     style="stroke-width:1.07644" />
  <path
     d="m 127.88326,197.39953 h 41.73801 l -3.93532,45.22139 -37.80376,10.49634 v 36.27537 l 69.48695,-19.81029 0.50943,-5.89122 7.96617,-91.79658 0.82676,-9.36308 h -78.78824 z m 0,-70.65869 v 0.0852 h 81.87239 l 0.67924,-7.83677 1.54526,-17.67696 0.80978,-9.354341 h -84.90667 v 34.784001 z"
     fill="#ffffff"
     id="path10"
     style="stroke-width:1.07644" />
</svg>
