<?xml version="1.0" encoding="UTF-8" standalone="no"?>
<!-- Uploaded to: SVG Repo, www.svgrepo.com, Generator: SVG Repo Mixer Tools -->

<svg
   width="670.99951"
   height="670.99939"
   viewBox="0 0 214.71984 214.7198"
   version="1.1"
   preserveAspectRatio="xMidYMid"
   id="svg736"
   sodipodi:docname="nextjs.svg"
   xmlns:inkscape="http://www.inkscape.org/namespaces/inkscape"
   xmlns:sodipodi="http://sodipodi.sourceforge.net/DTD/sodipodi-0.dtd"
   xmlns="http://www.w3.org/2000/svg"
   xmlns:svg="http://www.w3.org/2000/svg">
  <defs
     id="defs740" />
  <sodipodi:namedview
     id="namedview738"
     pagecolor="#ffffff"
     bordercolor="#000000"
     borderopacity="0.25"
     inkscape:showpageshadow="2"
     inkscape:pageopacity="0.0"
     inkscape:pagecheckerboard="0"
     inkscape:deskcolor="#d1d1d1"
     showgrid="false" />
  <g
     id="g734"
     transform="translate(-21.197948,-20.082268)">
    <path
       d="m 121.52645,20.14005 c -0.46176,0.04197 -1.93101,0.188876 -3.25333,0.293806 C 87.775771,23.183041 59.209438,39.636176 41.116725,64.924477 31.041896,78.98519 24.598204,94.93466 22.163454,111.8285 c -0.860558,5.89711 -0.965505,7.63896 -0.965505,15.63468 0,7.99572 0.104947,9.73757 0.965505,15.63468 5.835005,40.31437 34.527276,74.18601 73.441297,86.73572 6.968429,2.24552 14.314659,3.77751 22.668369,4.7009 3.25333,0.35676 17.31611,0.35676 20.56944,0 14.4196,-1.59495 26.63533,-5.16259 38.68314,-11.31153 1.84706,-0.94438 2.20387,-1.19621 1.952,-1.40608 -0.16791,-0.12591 -8.03887,-10.68194 -17.48402,-23.44152 l -17.16919,-23.18968 -21.51396,-31.83598 c -11.83792,-17.50244 -21.57692,-31.81499 -21.66088,-31.81499 -0.084,-0.021 -0.16791,14.12367 -0.20989,31.39527 -0.063,30.24103 -0.084,31.45822 -0.46176,32.17175 -0.54572,1.02832 -0.96551,1.44805 -1.847059,1.90974 -0.67165,0.33578 -1.25935,0.39874 -4.42872,0.39874 h -3.63114 l -0.9655,-0.6086 c -0.62968,-0.39874 -1.09144,-0.92339 -1.40628,-1.53199 l -0.44077,-0.94437 0.042,-42.07722 0.063,-42.0982 0.65067,-0.81846 c 0.33583,-0.44071 1.04946,-1.00733 1.5532,-1.28015 0.86056,-0.41973 1.19639,-0.4617 4.82752,-0.4617 4.2818,0 4.995439,0.16789 6.107869,1.38509 0.31484,0.33577 11.96386,17.88019 25.9007,39.01323 13.93685,21.13305 32.99506,49.98899 42.35626,64.15464 l 17.00127,25.75 0.86056,-0.56663 c 7.61909,-4.95273 15.67895,-12.00407 22.05968,-19.34922 13.58003,-15.59271 22.33253,-34.60615 25.27103,-54.87876 0.86055,-5.89711 0.9655,-7.63896 0.9655,-15.63468 0,-7.99572 -0.10495,-9.73757 -0.9655,-15.63468 -5.83507,-40.314374 -34.52734,-74.186007 -73.44137,-86.73572 -6.86347,-2.224531 -14.16772,-3.75652 -22.35352,-4.67991 -2.01497,-0.209861 -15.88885,-0.440709 -17.63095,-0.27282 z m 43.95144,64.93112 c 1.00748,0.50367 1.82606,1.46903 2.11991,2.47637 0.16791,0.54564 0.20989,12.213934 0.16791,38.50957 l -0.063,37.73308 -6.65359,-10.19926 -6.67457,-10.19927 v -27.42889 c 0,-17.733286 0.0839,-27.7017 0.20989,-28.18438 0.33583,-1.17523 1.07045,-2.09862 2.07793,-2.64426 0.86056,-0.44071 1.1754,-0.48268 4.47071,-0.48268 3.1064,0 3.65212,0.042 4.34477,0.41972 z"
       fill="#000000"
       id="path732"
       style="stroke-width:0.838749"
       inkscape:export-filename="path732.png"
       inkscape:export-xdpi="85.84211"
       inkscape:export-ydpi="85.84211" />
  </g>
</svg>
