<?xml version="1.0" encoding="UTF-8" standalone="no"?>
<svg
   id="Layer_1"
   data-name="Layer 1"
   viewBox="0 0 133.33333 133.33333"
   version="1.1"
   sodipodi:docname="tailwindcss.svg"
   width="800"
   height="800"
   inkscape:export-filename="tailwindcss.svg"
   inkscape:export-xdpi="96"
   inkscape:export-ydpi="96"
   inkscape:version="1.2.2 (732a01da63, 2022-12-09)"
   xmlns:inkscape="http://www.inkscape.org/namespaces/inkscape"
   xmlns:sodipodi="http://sodipodi.sourceforge.net/DTD/sodipodi-0.dtd"
   xmlns="http://www.w3.org/2000/svg"
   xmlns:svg="http://www.w3.org/2000/svg"
   xmlns:rdf="http://www.w3.org/1999/02/22-rdf-syntax-ns#"
   xmlns:cc="http://creativecommons.org/ns#"
   xmlns:dc="http://purl.org/dc/elements/1.1/">
  <sodipodi:namedview
     id="namedview11"
     pagecolor="#ffffff"
     bordercolor="#000000"
     borderopacity="0.25"
     inkscape:showpageshadow="2"
     inkscape:pageopacity="0.0"
     inkscape:pagecheckerboard="0"
     inkscape:deskcolor="#d1d1d1"
     showgrid="false"
     inkscape:zoom="0.44088552"
     inkscape:cx="269.91134"
     inkscape:cy="226.81625"
     inkscape:window-width="1360"
     inkscape:window-height="697"
     inkscape:window-x="-8"
     inkscape:window-y="-8"
     inkscape:window-maximized="1"
     inkscape:current-layer="Layer_1" />
  <defs
     id="defs4">
    <style
       id="style2">.cls-1{fill:#06b6d4;fill-rule:evenodd;}</style>
  </defs>
  <title
     id="title6">tailwind-css</title>
  <path
     class="cls-1"
     d="m 66.666658,8.3333333 q -19.995113,0 -24.999995,38.8888907 7.503254,-19.436484 17.496741,-14.581343 c 3.808593,1.846545 6.510415,7.211079 9.537758,13.148678 4.882811,9.678446 10.579425,20.86915 22.965489,20.86915 q 19.995129,0 25.000009,-38.888889 -7.49511,19.452404 -17.496738,14.581344 C 95.361331,40.504618 92.65949,35.140085 89.632146,29.202485 84.733059,19.476283 79.06086,8.3333333 66.666658,8.3333333 Z M 41.666663,66.658709 q -19.995112,0 -24.999996,38.888891 7.511394,-19.436487 17.496744,-14.581345 c 3.808592,1.846546 6.510414,7.211079 9.537757,13.164595 C 48.583979,113.79338 54.280592,125 66.666658,125 Q 86.661769,125 91.666651,86.111113 84.171535,105.5476 74.16991,100.66062 C 70.361318,98.814073 67.659496,93.449541 64.632153,87.511941 59.749342,77.833493 54.052728,66.626872 41.666663,66.626872 Z"
     id="path8"
     style="stroke-width:1.13818" />
  <metadata
     id="metadata240">
    <rdf:RDF>
      <cc:Work
         rdf:about="">
        <dc:title>tailwind-css</dc:title>
      </cc:Work>
    </rdf:RDF>
  </metadata>
</svg>
