<?xml version="1.0" encoding="UTF-8" standalone="no"?>
<svg
   width="512"
   height="512"
   viewBox="0 0 512 512"
   fill="none"
   version="1.1"
   id="svg400"
   sodipodi:docname="trpc.svg"
   xmlns:inkscape="http://www.inkscape.org/namespaces/inkscape"
   xmlns:sodipodi="http://sodipodi.sourceforge.net/DTD/sodipodi-0.dtd"
   xmlns="http://www.w3.org/2000/svg"
   xmlns:svg="http://www.w3.org/2000/svg">
  <defs
     id="defs404" />
  <sodipodi:namedview
     id="namedview402"
     pagecolor="#ffffff"
     bordercolor="#000000"
     borderopacity="0.25"
     inkscape:showpageshadow="2"
     inkscape:pageopacity="0.0"
     inkscape:pagecheckerboard="0"
     inkscape:deskcolor="#d1d1d1"
     showgrid="false" />
  <rect
     width="422.0647"
     height="422.0647"
     rx="123.65176"
     fill="#398ccb"
     id="rect396"
     x="49.619389"
     y="39.062462"
     style="stroke-width:0.824345" />
  <path
     fill-rule="evenodd"
     clip-rule="evenodd"
     d="m 260.19505,100.88834 58.59198,33.80475 v 18.58734 l 70.91924,40.95511 v 70.0578 l 19.02341,10.98193 v 67.64741 l -58.55406,33.80392 -25.99573,-15.03358 -63.20501,36.4921 -62.82664,-36.28108 -25.63137,14.82256 -58.55421,-33.86163 v -67.5897 l 18.28166,-10.5541 v -70.48563 l 69.39667,-40.06318 0.0387,-0.002 v -19.47763 z m 58.59198,69.9696 v 31.44382 l -58.55406,33.80474 -58.55324,-33.80474 v -30.57249 l -0.0387,0.002 -54.17843,31.29378 v 52.90977 l 25.05431,-14.46396 58.55324,33.80475 v 67.58971 l -17.71435,10.24413 47.61912,27.49851 47.99832,-27.70706 -17.35164,-10.03558 v -67.58971 l 58.55406,-33.80475 24.31158,14.03612 V 203.02493 Z M 306.84062,334.15247 V 292.8907 l 35.72547,20.62181 v 41.26178 z m 86.67,-41.31866 -35.72547,20.62183 v 41.31865 l 35.72547,-20.6787 z m -264.32924,41.26178 v -41.26178 l 35.72597,20.62183 v 41.26094 z m 86.67049,-41.26178 -35.72629,20.62183 v 41.26094 l 35.72629,-20.62099 z m 98.59828,-13.12605 35.72547,-20.62098 35.72547,20.62098 -35.72547,20.64078 z m -141.93328,-20.67869 -35.72628,20.67869 35.72628,20.58308 35.72548,-20.58308 z m 44.3811,-65.51565 v -41.26178 l 35.68755,20.63996 v 41.24281 z m 86.63208,-41.26178 -35.68755,20.63996 v 41.22385 l 35.68755,-20.60203 z m -79.02255,-13.16479 35.68755,-20.62091 35.72629,20.62091 -35.72629,20.62182 z"
     fill="#ffffff"
     id="path398"
     style="stroke-width:0.824345" />
</svg>
